<svg width="280" height="125" viewBox="0 0 280 125" fill="none" xmlns="http://www.w3.org/2000/svg">
<path fill-rule="evenodd" clip-rule="evenodd" d="M0 39.0369V58.5608H57.11C63.7481 58.5608 72.229 52.4227 72.229 42.2688C72.229 38.185 73.791 35.5211 68.991 30.1192L61.6862 21.4639C57.5005 17.5591 62.1862 17.5591 65.7021 17.5591H89.8144V58.5608H108.937V17.5591H134.71V0H51.2528C41.0989 0 36.1338 9.74958 36.4132 14.8258C36.6941 19.902 37.6278 26.2885 46.0655 33.9607C53.7624 40.9569 42.2549 39.0369 41.0989 39.0369H0ZM176.994 0H146.145L128.851 58.5623H148.097L151.22 50.3623H171.524L174.539 58.5623H193.391L176.994 0ZM155.516 36.3036L162.155 14.8258L168.404 36.3036H155.516ZM254.31 39.0369C246.891 39.0369 246.891 36.3036 246.891 36.3036C253.248 36.3036 258.885 27.0417 258.885 17.5591C258.885 8.07656 249.625 0 242.202 0H200.699V58.5623H221.788V39.0385C221.788 39.0385 230.767 49.5814 235.453 53.8766C240.14 58.1719 240.529 58.5623 246.89 58.5623H279.994V39.0385C279.997 39.0369 261.729 39.0369 254.31 39.0369ZM235.175 25.3702H221.791V14.8258H235.175C241.312 14.8258 242.374 25.3702 235.175 25.3702ZM0 65.9799H21.575L27.0417 85.5068L32.1179 65.9799H54.7671L60.6243 85.5068L66.483 65.9799H85.2259L68.0434 124.556H50.8624L43.3337 96.8291L34.8513 124.556H17.2798L0 65.9799ZM129.504 66.3179H98.6549L81.3628 124.879H100.607L103.731 116.68H124.038L127.052 124.879H145.906L129.504 66.3179ZM108.028 102.62L114.666 81.1421L120.914 102.62H108.028ZM254.699 83.5544C251.188 83.5544 247.359 83.965 251.546 87.8682L258.852 96.5251C263.651 101.927 263.574 104.179 263.574 108.266C263.574 118.418 253.529 124.556 246.891 124.556L200.75 124.866C194.393 124.866 194.004 124.477 189.317 120.182C184.632 115.887 175.65 105.342 175.65 105.342V124.866H154.564V66.3055H196.067C203.487 66.3055 212.75 74.3836 212.75 83.8647C212.75 93.3488 207.113 102.609 200.753 102.609C200.753 102.609 203.55 105.421 208.236 105.421C212.923 105.421 230.965 105.44 230.965 105.44C232.119 105.44 243.625 107.36 235.93 100.363C227.492 92.6913 226.559 86.3078 226.278 81.2316C225.997 76.1554 230.386 65.9814 240.536 65.9814H280V83.556L254.699 83.5544ZM189.036 91.6742H175.648V81.1298H189.036C195.174 81.1298 196.234 91.6742 189.036 91.6742Z" fill="white"/>
</svg>
